<svg width="121" height="34" viewBox="0 0 121 34" fill="none" xmlns="http://www.w3.org/2000/svg">
<path d="M12.064 33.46C9.856 33.46 7.86267 32.9693 6.084 31.988C4.336 30.976 2.94067 29.596 1.898 27.848C0.886 26.1 0.38 24.1373 0.38 21.96C0.38 19.7827 0.886 17.8353 1.898 16.118C2.91 14.37 4.27467 12.99 5.992 11.978C7.74 10.966 9.672 10.46 11.788 10.46C13.8427 10.46 15.652 10.9353 17.216 11.886C18.8107 12.8367 20.0527 14.14 20.942 15.796C21.862 17.452 22.322 19.338 22.322 21.454C22.322 21.822 22.2913 22.2053 22.23 22.604C22.1993 22.972 22.138 23.386 22.046 23.846H3.922V19.706H19.424L17.538 21.362C17.4767 20.0127 17.216 18.878 16.756 17.958C16.296 17.038 15.6367 16.3327 14.778 15.842C13.95 15.3513 12.9227 15.106 11.696 15.106C10.408 15.106 9.28867 15.382 8.338 15.934C7.38733 16.486 6.65133 17.268 6.13 18.28C5.60867 19.2613 5.348 20.442 5.348 21.822C5.348 23.202 5.624 24.4133 6.176 25.456C6.728 26.4987 7.51 27.3113 8.522 27.894C9.534 28.446 10.6993 28.722 12.018 28.722C13.1527 28.722 14.1953 28.5227 15.146 28.124C16.1273 27.7253 16.9553 27.1427 17.63 26.376L20.85 29.642C19.7767 30.8993 18.4733 31.85 16.94 32.494C15.4067 33.138 13.7813 33.46 12.064 33.46Z" fill="#9688F3"/>
<path d="M32.2203 21.178V15.566H39.2123C40.1016 15.566 40.9143 15.382 41.6503 15.014C42.3863 14.646 42.9689 14.1093 43.3983 13.404C43.8276 12.6987 44.0423 11.84 44.0423 10.828C44.0423 9.84667 43.8276 9.00333 43.3983 8.298C42.9689 7.59267 42.3863 7.056 41.6503 6.688C40.9143 6.32 40.1016 6.136 39.2123 6.136H32.2203V0.523999H40.2703C42.3249 0.523999 44.1803 0.937999 45.8363 1.766C47.4923 2.594 48.7956 3.79 49.7463 5.354C50.7276 6.88733 51.2183 8.712 51.2183 10.828C51.2183 12.944 50.7276 14.784 49.7463 16.348C48.7956 17.8813 47.4923 19.0773 45.8363 19.936C44.1803 20.764 42.3249 21.178 40.2703 21.178H32.2203ZM26.7003 33V0.523999H33.9223V33H26.7003ZM63.3357 33.46C61.281 33.46 59.441 32.954 57.8157 31.942C56.221 30.93 54.9483 29.55 53.9977 27.802C53.0777 26.054 52.6177 24.0607 52.6177 21.822C52.6177 19.5833 53.0777 17.59 53.9977 15.842C54.9483 14.094 56.221 12.714 57.8157 11.702C59.441 10.69 61.281 10.184 63.3357 10.184C64.8383 10.184 66.1877 10.4753 67.3837 11.058C68.6103 11.6407 69.607 12.4533 70.3737 13.496C71.1403 14.508 71.5697 15.6733 71.6617 16.992V26.652C71.5697 27.9707 71.1403 29.1513 70.3737 30.194C69.6377 31.206 68.6563 32.0033 67.4297 32.586C66.203 33.1687 64.8383 33.46 63.3357 33.46ZM64.7617 27.112C66.2643 27.112 67.4757 26.6213 68.3957 25.64C69.3157 24.628 69.7757 23.3553 69.7757 21.822C69.7757 20.7793 69.561 19.8593 69.1317 19.062C68.733 18.2647 68.1503 17.6513 67.3837 17.222C66.6477 16.762 65.789 16.532 64.8077 16.532C63.8263 16.532 62.9523 16.762 62.1857 17.222C61.4497 17.6513 60.8517 18.2647 60.3917 19.062C59.9623 19.8593 59.7477 20.7793 59.7477 21.822C59.7477 22.834 59.9623 23.7387 60.3917 24.536C60.821 25.3333 61.419 25.962 62.1857 26.422C62.9523 26.882 63.811 27.112 64.7617 27.112ZM69.4997 33V26.974L70.5577 21.546L69.4997 16.118V10.644H76.3997V33H69.4997ZM89.4971 33.552C88.1784 33.552 86.8751 33.3833 85.5871 33.046C84.3298 32.7087 83.1491 32.2333 82.0451 31.62C80.9718 30.976 80.0518 30.24 79.2851 29.412L83.2871 25.364C84.0231 26.1613 84.8971 26.79 85.9091 27.25C86.9211 27.6793 88.0251 27.894 89.2211 27.894C90.0491 27.894 90.6778 27.7713 91.1071 27.526C91.5671 27.2807 91.7971 26.9433 91.7971 26.514C91.7971 25.962 91.5211 25.548 90.9691 25.272C90.4478 24.9653 89.7731 24.7047 88.9451 24.49C88.1171 24.2447 87.2431 23.984 86.3231 23.708C85.4031 23.432 84.5291 23.0487 83.7011 22.558C82.8731 22.0673 82.1984 21.3927 81.6771 20.534C81.1558 19.6447 80.8951 18.5253 80.8951 17.176C80.8951 15.7347 81.2631 14.4927 81.9991 13.45C82.7351 12.3767 83.7778 11.5333 85.1271 10.92C86.4764 10.3067 88.0558 10 89.8651 10C91.7664 10 93.5144 10.3373 95.1091 11.012C96.7344 11.656 98.0531 12.622 99.0651 13.91L95.0631 17.958C94.3578 17.13 93.5604 16.5473 92.6711 16.21C91.8124 15.8727 90.9691 15.704 90.1411 15.704C89.3438 15.704 88.7458 15.8267 88.3471 16.072C87.9484 16.2867 87.7491 16.6087 87.7491 17.038C87.7491 17.498 88.0098 17.866 88.5311 18.142C89.0524 18.418 89.7271 18.6633 90.5551 18.878C91.3831 19.0927 92.2571 19.3533 93.1771 19.66C94.0971 19.9667 94.9711 20.3807 95.7991 20.902C96.6271 21.4233 97.3018 22.1287 97.8231 23.018C98.3444 23.8767 98.6051 25.0113 98.6051 26.422C98.6051 28.5993 97.7771 30.332 96.1211 31.62C94.4958 32.908 92.2878 33.552 89.4971 33.552ZM110.565 33.552C109.247 33.552 107.943 33.3833 106.655 33.046C105.398 32.7087 104.217 32.2333 103.113 31.62C102.04 30.976 101.12 30.24 100.353 29.412L104.355 25.364C105.091 26.1613 105.965 26.79 106.977 27.25C107.989 27.6793 109.093 27.894 110.289 27.894C111.117 27.894 111.746 27.7713 112.175 27.526C112.635 27.2807 112.865 26.9433 112.865 26.514C112.865 25.962 112.589 25.548 112.037 25.272C111.516 24.9653 110.841 24.7047 110.013 24.49C109.185 24.2447 108.311 23.984 107.391 23.708C106.471 23.432 105.597 23.0487 104.769 22.558C103.941 22.0673 103.267 21.3927 102.745 20.534C102.224 19.6447 101.963 18.5253 101.963 17.176C101.963 15.7347 102.331 14.4927 103.067 13.45C103.803 12.3767 104.846 11.5333 106.195 10.92C107.545 10.3067 109.124 10 110.933 10C112.835 10 114.583 10.3373 116.177 11.012C117.803 11.656 119.121 12.622 120.133 13.91L116.131 17.958C115.426 17.13 114.629 16.5473 113.739 16.21C112.881 15.8727 112.037 15.704 111.209 15.704C110.412 15.704 109.814 15.8267 109.415 16.072C109.017 16.2867 108.817 16.6087 108.817 17.038C108.817 17.498 109.078 17.866 109.599 18.142C110.121 18.418 110.795 18.6633 111.623 18.878C112.451 19.0927 113.325 19.3533 114.245 19.66C115.165 19.9667 116.039 20.3807 116.867 20.902C117.695 21.4233 118.37 22.1287 118.891 23.018C119.413 23.8767 119.673 25.0113 119.673 26.422C119.673 28.5993 118.845 30.332 117.189 31.62C115.564 32.908 113.356 33.552 110.565 33.552Z" fill="#624CF5"/>
</svg>
